<svg width="51" height="50" viewBox="0 0 51 50" fill="none" xmlns="http://www.w3.org/2000/svg">
<rect x="0.5" width="50" height="50" rx="25" fill="#CE9DFF"/>
<path d="M16.9615 32V30H17.6495C18.1615 30 18.5668 29.856 18.8655 29.568C19.1748 29.2693 19.3295 28.8747 19.3295 28.384V20.08H21.5215V28.304C21.5215 29.04 21.3615 29.6853 21.0415 30.24C20.7322 30.7947 20.2842 31.2267 19.6975 31.536C19.1215 31.8453 18.4388 32 17.6495 32H16.9615ZM23.9707 32V20.08H27.8587C29.1174 20.08 30.2107 20.336 31.1388 20.848C32.0774 21.3493 32.8027 22.048 33.3147 22.944C33.8268 23.8293 34.0828 24.8587 34.0828 26.032C34.0828 27.1947 33.8268 28.2293 33.3147 29.136C32.8027 30.032 32.0774 30.736 31.1388 31.248C30.2107 31.7493 29.1174 32 27.8587 32H23.9707ZM26.1467 30.08H27.9067C28.7174 30.08 29.4161 29.9147 30.0027 29.584C30.6001 29.2427 31.0641 28.7733 31.3947 28.176C31.7254 27.568 31.8907 26.8533 31.8907 26.032C31.8907 25.2 31.7254 24.4853 31.3947 23.888C31.0641 23.2907 30.6001 22.8267 30.0027 22.496C29.4161 22.1653 28.7174 22 27.9067 22H26.1467V30.08Z" fill="#7F00FF"/>
</svg>
