<svg width="25" height="24" viewBox="0 0 25 24" fill="none" xmlns="http://www.w3.org/2000/svg">
<path d="M5.08579 4.58579C4.71071 4.96086 4.5 5.46957 4.5 6V8C4.5 8.53043 4.71071 9.03914 5.08579 9.41421C5.46086 9.78929 5.96957 10 6.5 10H8.5C9.03043 10 9.53914 9.78929 9.91421 9.41421C10.2893 9.03914 10.5 8.53043 10.5 8V6C10.5 5.46957 10.2893 4.96086 9.91421 4.58579C9.53914 4.21071 9.03043 4 8.5 4H6.5C5.96957 4 5.46086 4.21071 5.08579 4.58579Z" stroke="white" stroke-width="2" stroke-linecap="round" stroke-linejoin="round"/>
<path d="M15.0858 4.58579C14.7107 4.96086 14.5 5.46957 14.5 6V8C14.5 8.53043 14.7107 9.03914 15.0858 9.41421C15.4609 9.78929 15.9696 10 16.5 10H18.5C19.0304 10 19.5391 9.78929 19.9142 9.41421C20.2893 9.03914 20.5 8.53043 20.5 8V6C20.5 5.46957 20.2893 4.96086 19.9142 4.58579C19.5391 4.21071 19.0304 4 18.5 4H16.5C15.9696 4 15.4609 4.21071 15.0858 4.58579Z" stroke="white" stroke-width="2" stroke-linecap="round" stroke-linejoin="round"/>
<path d="M5.08579 14.5858C4.71071 14.9609 4.5 15.4696 4.5 16V18C4.5 18.5304 4.71071 19.0391 5.08579 19.4142C5.46086 19.7893 5.96957 20 6.5 20H8.5C9.03043 20 9.53914 19.7893 9.91421 19.4142C10.2893 19.0391 10.5 18.5304 10.5 18V16C10.5 15.4696 10.2893 14.9609 9.91421 14.5858C9.53914 14.2107 9.03043 14 8.5 14H6.5C5.96957 14 5.46086 14.2107 5.08579 14.5858Z" stroke="white" stroke-width="2" stroke-linecap="round" stroke-linejoin="round"/>
<path d="M15.0858 14.5858C14.7107 14.9609 14.5 15.4696 14.5 16V18C14.5 18.5304 14.7107 19.0391 15.0858 19.4142C15.4609 19.7893 15.9696 20 16.5 20H18.5C19.0304 20 19.5391 19.7893 19.9142 19.4142C20.2893 19.0391 20.5 18.5304 20.5 18V16C20.5 15.4696 20.2893 14.9609 19.9142 14.5858C19.5391 14.2107 19.0304 14 18.5 14H16.5C15.9696 14 15.4609 14.2107 15.0858 14.5858Z" stroke="white" stroke-width="2" stroke-linecap="round" stroke-linejoin="round"/>
</svg>
